<?xml version="1.0" encoding="UTF-8"?>
<!DOCTYPE svg PUBLIC "-//W3C//DTD SVG 1.1//EN" "http://www.w3.org/Graphics/SVG/1.1/DTD/svg11.dtd">
<svg xmlns="http://www.w3.org/2000/svg" version="1.1" width="128px" height="128px" style="shape-rendering:geometricPrecision; text-rendering:geometricPrecision; image-rendering:optimizeQuality; fill-rule:evenodd; clip-rule:evenodd" xmlns:xlink="http://www.w3.org/1999/xlink">
<g><path style="opacity:0.954" fill="#000000" d="M 52.5,3.5 C 87.1212,0.37963 110.288,15.0463 122,47.5C 127.898,77.5189 118.065,100.686 92.5,117C 60.9636,130.563 34.4636,124.063 13,97.5C 0.333333,74.8333 0.333333,52.1667 13,29.5C 22.8777,15.6566 36.0443,6.98993 52.5,3.5 Z M 69.5,28.5 C 91.2627,29.0908 100.429,40.0908 97,61.5C 94.439,67.3948 90.439,72.0614 85,75.5C 82.6001,74.6022 81.1001,72.9355 80.5,70.5C 83.8166,66.5474 86.6499,62.2141 89,57.5C 90.7544,45.6506 85.7544,38.984 74,37.5C 70.8707,37.3291 68.0373,38.1624 65.5,40C 62.6148,42.3943 59.6148,44.5609 56.5,46.5C 54.0645,45.8999 52.3978,44.3999 51.5,42C 55.9649,35.2862 61.9649,30.7862 69.5,28.5 Z M 41.5,51.5 C 44.175,52.175 45.8417,53.8416 46.5,56.5C 43.1834,60.4526 40.3501,64.7859 38,69.5C 36.5,84 43,90.5 57.5,89C 62.2141,86.6499 66.5474,83.8166 70.5,80.5C 72.9355,81.1001 74.6022,82.6001 75.5,85C 65.8037,98.8408 53.4703,101.841 38.5,94C 27.0258,83.4232 25.5258,71.5899 34,58.5C 36.3959,55.9334 38.8959,53.6 41.5,51.5 Z M 70.5,51.5 C 74.2542,52.8654 75.4209,55.5321 74,59.5C 68.5714,65.6022 62.5714,70.9355 56,75.5C 52.0973,73.725 51.0973,71.0583 53,67.5C 58.4536,61.5373 64.2869,56.2039 70.5,51.5 Z"/></g>
</svg>
